<svg id="Capa_1" enable-background="new 0 0 512 512" height="512" viewBox="0 0 512 512" width="512" xmlns="http://www.w3.org/2000/svg"><circle cx="256" cy="256" fill="#da4a54" r="248.5"/><path d="m364.64 103.84-53.09 53.09-36.1 36.11-6.64 6.64-27.26 27.27-19.29 19.29-22.58 22.57-19.1 19.09-8.02 8.03-68.72 68.71c-21.9-30.62-34.79-68.13-34.79-108.64 0-103.25 83.7-186.95 186.95-186.95 40.51 0 78.02 12.89 108.64 34.79z" fill="#f9f6f9"/><path d="m442.95 256c0 103.25-83.7 186.95-186.95 186.95-40.51 0-78.02-12.89-108.64-34.79l68.72-68.71 27.12-27.12 10.11-10.12 10.44-10.44 2.02-2.02 43.5-43.5 3.06-3.05 4.44-4.44 25.72-25.72 30.75-30.76 34.92-34.92c21.9 30.62 34.79 68.13 34.79 108.64z" fill="#f9f6f9"/><g fill="#80b4fb"><path d="m373.24 182.28-30.75 30.76c16.77 8.73 32.29 20.07 46.02 33.81l29.59-29.59c-13.64-13.64-28.7-25.34-44.86-34.98zm-117.24-32.07c-61.3 0-118.87 23.81-162.1 67.05l29.58 29.59h.01c35.34-35.33 82.39-54.8 132.51-54.8 6.54 0 13.03.33 19.45.99l36.1-36.11c-17.95-4.44-36.57-6.72-55.55-6.72z"/><path d="m147.69 271.06 24.87 24.87 8.02-8.03 19.1-19.09 22.58-22.57 19.29-19.29c-34.28 3.22-67.67 17.92-93.86 44.11zm169.08-32.3-4.44 4.44-3.06 3.05-25.37 25.37c18.64 4.78 36.27 14.46 50.83 29.02l29.58-29.58c-14.09-14.09-30.26-24.86-47.54-32.3z"/><path d="m310.6 324.77-54.6 54.59-39.92-39.91 27.12-27.12 10.11-10.12c.89-.03 1.79-.05 2.69-.05 21.33 0 40.62 8.65 54.6 22.61z"/></g><path d="m437.019 74.982c-48.353-48.353-112.64-74.982-181.019-74.982s-132.666 26.629-181.019 74.982c-48.352 48.352-74.981 112.639-74.981 181.018s26.629 132.666 74.981 181.019c48.353 48.352 112.64 74.981 181.019 74.981 48.662 0 96.011-13.716 136.927-39.667 3.498-2.218 4.535-6.853 2.317-10.351-2.22-3.498-6.856-4.534-10.351-2.316-38.509 24.424-83.08 37.334-128.893 37.334-64.372 0-124.892-25.069-170.412-70.588s-70.588-106.04-70.588-170.412 25.069-124.892 70.588-170.412 106.04-70.588 170.412-70.588 124.893 25.069 170.412 70.588 70.588 106.04 70.588 170.412c0 72.76-32.384 140.884-88.849 186.907-3.211 2.617-3.692 7.341-1.075 10.552 2.615 3.21 7.34 3.692 10.552 1.075 59.975-48.884 94.372-121.246 94.372-198.534 0-68.379-26.629-132.666-74.981-181.018z"/><path d="m369.943 109.143c1.558-1.558 2.352-3.723 2.171-5.919-.181-2.197-1.319-4.202-3.111-5.484-33.103-23.676-72.179-36.19-113.003-36.19-107.22 0-194.45 87.23-194.45 194.45 0 40.825 12.514 79.9 36.19 113.003 1.282 1.793 3.288 2.931 5.484 3.112.206.017.412.025.617.025 1.98 0 3.891-.785 5.303-2.197zm-197.388 176.176-14.119-14.119c17.42-15.69 38.418-26.925 61.019-32.78zm-67.606 67.606c-18.609-28.907-28.399-62.229-28.399-96.925 0-98.949 80.501-179.45 179.45-179.45 34.693 0 68.019 9.792 96.925 28.398l-43.739 43.739c-17.325-3.95-35.191-5.977-53.186-5.977-35.489 0-69.529 7.576-101.172 22.518-3.746 1.769-5.349 6.238-3.58 9.984 1.28 2.711 3.975 4.3 6.787 4.3 1.073 0 2.163-.231 3.197-.72 29.626-13.989 61.51-21.082 94.768-21.082 13.652 0 27.225 1.228 40.507 3.657l-23.891 23.891c-5.494-.462-11.064-.708-16.616-.708-49.592 0-96.324 18.34-132.414 51.798l-18.993-18.999c9.736-9.108 20.242-17.316 31.312-24.457 3.481-2.246 4.482-6.887 2.237-10.368-2.246-3.48-6.888-4.481-10.368-2.237-14.037 9.054-27.218 19.709-39.178 31.669-2.929 2.929-2.929 7.676-.001 10.605l29.58 29.59c1.407 1.407 3.325 2.198 5.314 2.198s3.896-.79 5.303-2.196c33.933-33.921 79.109-52.603 127.208-52.603.764 0 1.529.02 2.294.029l-20.191 20.191c-36.113 4.03-70.011 20.291-95.716 45.986-1.407 1.406-2.198 3.314-2.198 5.304 0 1.989.79 3.897 2.197 5.304l19.562 19.562z"/><path d="m142.997 414.26c33.103 23.676 72.178 36.19 113.003 36.19 107.221 0 194.45-87.23 194.45-194.45 0-40.824-12.515-79.9-36.189-113.003-1.282-1.792-3.288-2.93-5.484-3.112-2.204-.18-4.362.614-5.92 2.171l-260.8 260.8c-1.559 1.558-2.353 3.723-2.171 5.919s1.318 4.204 3.111 5.485zm231.359-222.489c11.742 7.434 22.818 16.005 33.049 25.577l-18.995 18.995c-10.334-9.585-21.598-17.947-33.608-25.019zm-55.968 55.968c12.818 6.054 24.616 13.908 35.181 23.455l-19.007 19.007c-10.798-9.513-23.226-16.96-36.636-22.001zm-61.931 61.931c15.917.102 31.01 5.504 43.252 15.383l-43.709 43.701-29.314-29.314zm-40.377 40.376 34.617 34.617c1.464 1.465 3.384 2.197 5.303 2.197s3.839-.732 5.303-2.196l54.6-54.59c1.407-1.407 2.198-3.316 2.197-5.306s-.792-3.898-2.2-5.305c-12.597-12.58-28.452-20.69-45.646-23.59l15.846-15.846c16.302 4.904 31.212 13.802 43.328 25.917 1.464 1.465 3.384 2.197 5.303 2.197s3.839-.732 5.304-2.197l29.579-29.58c2.929-2.929 2.929-7.678 0-10.606-11.858-11.857-25.284-21.655-40.017-29.226l14.233-14.233c14.338 8.025 27.567 18.046 39.377 29.856 1.407 1.407 3.314 2.197 5.304 2.197s3.896-.79 5.304-2.197l29.59-29.59c2.929-2.929 2.929-7.678 0-10.606-11.678-11.677-24.507-22.07-38.21-31.023l21.858-21.858c18.607 28.905 28.397 62.226 28.397 96.922 0 98.949-80.501 179.45-179.45 179.45-34.696 0-68.018-9.79-96.925-28.399z"/></svg>